<svg width="24" height="24" viewBox="0 0 24 24" fill="none" xmlns="http://www.w3.org/2000/svg">
<g clip-path="url(#clip0_382_3888)">
<mask id="mask0_382_3888" style="mask-type:alpha" maskUnits="userSpaceOnUse" x="0" y="0" width="42" height="42">
<rect width="42" height="42" fill="#D9D9D9"/>
</mask>
<g mask="url(#mask0_382_3888)">
<path d="M7.1155 15.4808H13.6155C14.1743 15.4808 14.6473 15.283 15.0345 14.8875C15.4218 14.492 15.6155 14.0148 15.6155 13.4558C15.6155 12.8968 15.4168 12.4237 15.0193 12.0365C14.6218 11.6493 14.1372 11.4558 13.5655 11.4558H13.2962V11.3405C13.2654 10.516 12.941 9.83325 12.323 9.29225C11.7052 8.75125 10.9693 8.48075 10.1155 8.48075C9.53467 8.48075 8.99933 8.63842 8.5095 8.95375C8.01983 9.26925 7.65258 9.69042 7.40775 10.2172L7.273 10.4865L6.9845 10.5057C6.31283 10.5391 5.75008 10.792 5.29625 11.2645C4.84242 11.7368 4.6155 12.3089 4.6155 12.9808C4.6155 13.6731 4.85908 14.2628 5.34625 14.75C5.83342 15.2372 6.42317 15.4808 7.1155 15.4808ZM7.1155 14.4808C6.70383 14.4808 6.35092 14.3337 6.05675 14.0395C5.76258 13.7452 5.6155 13.3923 5.6155 12.9808C5.6155 12.5693 5.76258 12.2163 6.05675 11.922C6.35092 11.6278 6.70383 11.4808 7.1155 11.4808H7.8845V11.423C7.9615 10.8628 8.2125 10.3991 8.6375 10.0318C9.0625 9.66442 9.55517 9.48075 10.1155 9.48075C10.7398 9.48075 11.2709 9.69967 11.7088 10.1375C12.1466 10.5753 12.3655 11.1064 12.3655 11.7308V12.4808H13.6155C13.8898 12.4808 14.1251 12.5788 14.3212 12.775C14.5174 12.9712 14.6155 13.2064 14.6155 13.4808C14.6155 13.7551 14.5174 13.9903 14.3212 14.1865C14.1251 14.3827 13.8898 14.4808 13.6155 14.4808H7.1155ZM7.73075 22V21H9.15375V18.1923H3.6155C3.15517 18.1923 2.77083 18.0381 2.4625 17.7298C2.15417 17.4214 2 17.0372 2 16.577V7.3845C2 6.92433 2.15417 6.54008 2.4625 6.23175C2.77083 5.92342 3.15517 5.76925 3.6155 5.76925H16.6155C17.0757 5.76925 17.4599 5.92342 17.7682 6.23175C18.0766 6.54008 18.2307 6.92433 18.2307 7.3845V16.577C18.2307 17.0372 18.0766 17.4214 17.7682 17.7298C17.4599 18.0381 17.0757 18.1923 16.6155 18.1923H11.077V21H12.5V22H7.73075ZM21 13.4423V3.6155C21 3.436 20.9423 3.2885 20.827 3.173C20.7115 3.05767 20.564 3 20.3845 3H5.80775V2H20.3845C20.8448 2 21.2292 2.15417 21.5375 2.4625C21.8458 2.77083 22 3.15517 22 3.6155V13.4423H21ZM3.6155 17.2115H16.6155C16.7948 17.2115 16.9422 17.1538 17.0577 17.0385C17.1731 16.9232 17.2308 16.7757 17.2308 16.5962V7.3655C17.2308 7.186 17.1731 7.0385 17.0577 6.923C16.9422 6.80767 16.7948 6.75 16.6155 6.75H3.6155C3.436 6.75 3.2885 6.80767 3.173 6.923C3.05767 7.0385 3 7.186 3 7.3655V16.5962C3 16.7757 3.05767 16.9232 3.173 17.0385C3.2885 17.1538 3.436 17.2115 3.6155 17.2115Z" fill="#FBF8FF"/>
</g>
</g>
<defs>
<clipPath id="clip0_382_3888">
<rect width="24" height="24" fill="white"/>
</clipPath>
</defs>
</svg>
