<svg width="22" height="22" viewBox="0 0 22 22" fill="none" xmlns="http://www.w3.org/2000/svg">
<path d="M19.2498 14.6667H15.5832C15.0769 14.6667 14.6665 15.0772 14.6665 15.5834V19.2501C14.6665 19.7563 15.0769 20.1667 15.5832 20.1667H19.2498C19.7561 20.1667 20.1665 19.7563 20.1665 19.2501V15.5834C20.1665 15.0772 19.7561 14.6667 19.2498 14.6667Z" stroke="#FBF8FF" stroke-width="1.5" stroke-linecap="round" stroke-linejoin="round"/>
<path d="M6.41683 14.6667H2.75016C2.2439 14.6667 1.8335 15.0772 1.8335 15.5834V19.2501C1.8335 19.7563 2.2439 20.1667 2.75016 20.1667H6.41683C6.92309 20.1667 7.3335 19.7563 7.3335 19.2501V15.5834C7.3335 15.0772 6.92309 14.6667 6.41683 14.6667Z" stroke="#FBF8FF" stroke-width="1.5" stroke-linecap="round" stroke-linejoin="round"/>
<path d="M12.8333 1.83325H9.16667C8.66041 1.83325 8.25 2.24366 8.25 2.74992V6.41659C8.25 6.92285 8.66041 7.33325 9.16667 7.33325H12.8333C13.3396 7.33325 13.75 6.92285 13.75 6.41659V2.74992C13.75 2.24366 13.3396 1.83325 12.8333 1.83325Z" stroke="#FBF8FF" stroke-width="1.5" stroke-linecap="round" stroke-linejoin="round"/>
<path d="M4.5835 14.6667V11.9167C4.5835 11.6736 4.68007 11.4404 4.85198 11.2685C5.02389 11.0966 5.25705 11 5.50016 11H16.5002C16.7433 11 16.9764 11.0966 17.1483 11.2685C17.3203 11.4404 17.4168 11.6736 17.4168 11.9167V14.6667" stroke="#FBF8FF" stroke-width="1.5" stroke-linecap="round" stroke-linejoin="round"/>
<path d="M11 10.9999V7.33325" stroke="#FBF8FF" stroke-width="1.5" stroke-linecap="round" stroke-linejoin="round"/>
</svg>
