<svg width="22" height="23" viewBox="0 0 22 23" fill="none" xmlns="http://www.w3.org/2000/svg">
<mask id="mask0_730_383" style="mask-type:alpha" maskUnits="userSpaceOnUse" x="0" y="0" width="22" height="23">
<rect y="0.5" width="22" height="22" fill="#D9D9D9"/>
</mask>
<g mask="url(#mask0_730_383)">
<path d="M10.9998 20.2087C9.80588 20.2087 8.67914 19.9798 7.61963 19.5221C6.56011 19.0644 5.63611 18.4412 4.84763 17.6525C4.05899 16.864 3.43581 15.94 2.97809 14.8805C2.52037 13.821 2.2915 12.6943 2.2915 11.5003C2.2915 10.2969 2.52037 9.16779 2.97809 8.11301C3.43581 7.05824 4.05899 6.1366 4.84763 5.34812C5.63611 4.55948 6.56011 3.9363 7.61963 3.47858C8.67914 3.02085 9.80588 2.79199 10.9998 2.79199C12.2033 2.79199 13.3324 3.02085 14.3871 3.47858C15.4419 3.9363 16.3636 4.55948 17.152 5.34812C17.9407 6.1366 18.5639 7.05824 19.0216 8.11301C19.4793 9.16779 19.7082 10.2969 19.7082 11.5003C19.7082 12.6943 19.4793 13.821 19.0216 14.8805C18.5639 15.94 17.9407 16.864 17.152 17.6525C16.3636 18.4412 15.4419 19.0644 14.3871 19.5221C13.3324 19.9798 12.2033 20.2087 10.9998 20.2087ZM10.9998 18.8142C11.4676 18.1937 11.8614 17.568 12.181 16.9368C12.5006 16.3057 12.7609 15.6159 12.962 14.8672H9.03771C9.25053 15.6394 9.51384 16.341 9.82765 16.9721C10.1413 17.6033 10.532 18.2173 10.9998 18.8142ZM9.22471 18.5621C8.87332 18.0579 8.55776 17.4848 8.27802 16.8427C7.99829 16.2004 7.78089 15.5419 7.62582 14.8672H4.51625C5.00041 15.8192 5.64971 16.619 6.46417 17.2666C7.27863 17.9141 8.19881 18.3459 9.22471 18.5621ZM12.775 18.5621C13.8009 18.3459 14.721 17.9141 15.5355 17.2666C16.35 16.619 16.9993 15.8192 17.4834 14.8672H14.3739C14.1893 15.5477 13.9572 16.2091 13.6774 16.8514C13.3978 17.4936 13.097 18.0639 12.775 18.5621ZM3.93967 13.4922H7.34738C7.28978 13.1515 7.248 12.8175 7.22202 12.4901C7.19621 12.1628 7.1833 11.8329 7.1833 11.5003C7.1833 11.1677 7.19621 10.8378 7.22202 10.5106C7.248 10.1832 7.28978 9.8491 7.34738 9.50841H3.93967C3.85152 9.81977 3.78399 10.1435 3.73709 10.4796C3.69003 10.8157 3.6665 11.156 3.6665 11.5003C3.6665 11.8447 3.69003 12.1849 3.73709 12.521C3.78399 12.8571 3.85152 13.1809 3.93967 13.4922ZM8.72215 13.4922H13.2775C13.335 13.1515 13.3767 12.8205 13.4026 12.499C13.4285 12.1776 13.4414 11.8447 13.4414 11.5003C13.4414 11.156 13.4285 10.8231 13.4026 10.5016C13.3767 10.1802 13.335 9.8491 13.2775 9.50841H8.72215C8.6647 9.8491 8.623 10.1802 8.59702 10.5016C8.5712 10.8231 8.5583 11.156 8.5583 11.5003C8.5583 11.8447 8.5712 12.1776 8.59702 12.499C8.623 12.8205 8.6647 13.1515 8.72215 13.4922ZM14.6523 13.4922H18.06C18.1482 13.1809 18.2157 12.8571 18.2626 12.521C18.3096 12.1849 18.3332 11.8447 18.3332 11.5003C18.3332 11.156 18.3096 10.8157 18.2626 10.4796C18.2157 10.1435 18.1482 9.81977 18.06 9.50841H14.6523C14.7099 9.8491 14.7517 10.1832 14.7776 10.5106C14.8035 10.8378 14.8164 11.1677 14.8164 11.5003C14.8164 11.8329 14.8035 12.1628 14.7776 12.4901C14.7517 12.8175 14.7099 13.1515 14.6523 13.4922ZM14.3739 8.13341H17.4834C16.9935 7.16969 16.3486 6.36989 15.5488 5.73403C14.749 5.09833 13.8244 4.66352 12.775 4.42962C13.1264 4.96312 13.4389 5.54665 13.7127 6.18022C13.9866 6.81364 14.207 7.4647 14.3739 8.13341ZM9.03771 8.13341H12.962C12.7491 7.36708 12.4815 6.66101 12.159 6.01522C11.8363 5.36943 11.4499 4.75985 10.9998 4.18647C10.5498 4.75985 10.1634 5.36943 9.84071 6.01522C9.5182 6.66101 9.25053 7.36708 9.03771 8.13341ZM4.51625 8.13341H7.62582C7.79265 7.4647 8.01303 6.81364 8.28696 6.18022C8.56074 5.54665 8.87332 4.96312 9.22471 4.42962C8.16932 4.66352 7.24326 5.09985 6.44652 5.73862C5.64964 6.37723 5.00621 7.17549 4.51625 8.13341Z" fill="#636364"/>
</g>
</svg>
